# xmcd
#
# Track frame offsets:
#	150
#	88125
#	134850
#	196578
#	216605
#	280955
#
# Disc length: 4705 seconds
#
# Revision: 1
# Processed by: cddbd v1.5.2PL0 Copyright (c) Steve Scherf et al.
# Submitted via: audiograbber 1.83.01
#
DISCID=62125f06
DTITLE=Hanneke Groenteman - Doorzakken Bij Jamin
DYEAR=2006
DGENRE=Luisterboek
TTITLE0=Hoofdstuk 11 - Gijsje
TTITLE1=Hoofdstuk 12 - De Diëten
TTITLE2=Hoofdstuk 13 - Diëten Door De Jaren Heen
TTITLE3=Hoofdstuk 14 - Alleen In Een Ver Land
TTITLE4=Hoofdstuk 15 - Schaamte
TTITLE5=Hoofdstuk 16 - Zuurkool
EXTD=
EXTT0=
EXTT1=
EXTT2=
EXTT3=
EXTT4=
EXTT5=
PLAYORDER=
